NDIME= 2
NELEM= 100
9 0 4 40 39 0
9 39 40 41 38 1
9 38 41 42 37 2
9 37 42 43 36 3
9 36 43 44 35 4
9 35 44 45 34 5
9 34 45 46 33 6
9 33 46 47 32 7
9 32 47 48 31 8
9 31 48 30 3 9
9 4 5 49 40 10
9 40 49 50 41 11
9 41 50 51 42 12
9 42 51 52 43 13
9 43 52 53 44 14
9 44 53 54 45 15
9 45 54 55 46 16
9 46 55 56 47 17
9 47 56 57 48 18
9 48 57 29 30 19
9 5 6 58 49 20
9 49 58 59 50 21
9 50 59 60 51 22
9 51 60 61 52 23
9 52 61 62 53 24
9 53 62 63 54 25
9 54 63 64 55 26
9 55 64 65 56 27
9 56 65 66 57 28
9 57 66 28 29 29
9 6 7 67 58 30
9 58 67 68 59 31
9 59 68 69 60 32
9 60 69 70 61 33
9 61 70 71 62 34
9 62 71 72 63 35
9 63 72 73 64 36
9 64 73 74 65 37
9 65 74 75 66 38
9 66 75 27 28 39
9 7 8 76 67 40
9 67 76 77 68 41
9 68 77 78 69 42
9 69 78 79 70 43
9 70 79 80 71 44
9 71 80 81 72 45
9 72 81 82 73 46
9 73 82 83 74 47
9 74 83 84 75 48
9 75 84 26 27 49
9 8 9 85 76 50
9 76 85 86 77 51
9 77 86 87 78 52
9 78 87 88 79 53
9 79 88 89 80 54
9 80 89 90 81 55
9 81 90 91 82 56
9 82 91 92 83 57
9 83 92 93 84 58
9 84 93 25 26 59
9 9 10 94 85 60
9 85 94 95 86 61
9 86 95 96 87 62
9 87 96 97 88 63
9 88 97 98 89 64
9 89 98 99 90 65
9 90 99 100 91 66
9 91 100 101 92 67
9 92 101 102 93 68
9 93 102 24 25 69
9 10 11 103 94 70
9 94 103 104 95 71
9 95 104 105 96 72
9 96 105 106 97 73
9 97 106 107 98 74
9 98 107 108 99 75
9 99 108 109 100 76
9 100 109 110 101 77
9 101 110 111 102 78
9 102 111 23 24 79
9 11 12 112 103 80
9 103 112 113 104 81
9 104 113 114 105 82
9 105 114 115 106 83
9 106 115 116 107 84
9 107 116 117 108 85
9 108 117 118 109 86
9 109 118 119 110 87
9 110 119 120 111 88
9 111 120 22 23 89
9 12 1 13 112 90
9 112 13 14 113 91
9 113 14 15 114 92
9 114 15 16 115 93
9 115 16 17 116 94
9 116 17 18 117 95
9 117 18 19 118 96
9 118 19 20 119 97
9 119 20 21 120 98
9 120 21 2 22 99
NPOIN= 121
0 0 0
1 0 1
1 1 2
0 1 3
0.09999999999981414 0 4
0.1999999999995569 0 5
0.299999999999265 0 6
0.3999999999989731 0 7
0.4999999999986921 0 8
0.599999999998945 0 9
0.6999999999992088 0 10
0.7999999999994725 0 11
0.8999999999997362 0 12
1 0.09999999999981414 13
1 0.1999999999995569 14
1 0.299999999999265 15
1 0.3999999999989731 16
1 0.4999999999986921 17
1 0.599999999998945 18
1 0.6999999999992088 19
1 0.7999999999994725 20
1 0.8999999999997362 21
0.8999999999995836 1 22
0.8 1 23
0.7000000000006938 1 24
0.6000000000013874 1 25
0.5000000000020595 1 26
0.400000000001665 1 27
0.3000000000012487 1 28
0.2000000000008325 1 29
0.1000000000004162 1 30
0 0.8999999999995836 31
0 0.8 32
0 0.7000000000006938 33
0 0.6000000000013874 34
0 0.5000000000020595 35
0 0.400000000001665 36
0 0.3000000000012487 37
0 0.2000000000008325 38
0 0.1000000000004162 39
0.09999999999987436 0.100000000000356 40
0.09999999999993456 0.2000000000007049 41
0.09999999999999476 0.3000000000010504 42
0.100000000000055 0.4000000000013959 43
0.1000000000001152 0.5000000000017226 44
0.1000000000001754 0.6000000000011431 45
0.1000000000002356 0.7000000000005454 46
0.1000000000002958 0.7999999999999471 47
0.100000000000356 0.8999999999995988 48
0.1999999999996845 0.1000000000002958 49
0.199999999999812 0.2000000000005774 50
0.1999999999999396 0.3000000000008519 51
0.2000000000000671 0.4000000000011267 52
0.2000000000001947 0.500000000001386 53
0.2000000000003223 0.6000000000008989 54
0.2000000000004498 0.7000000000003967 55
0.2000000000005774 0.7999999999998945 56
0.2000000000007049 0.8999999999996142 57
0.2999999999994634 0.1000000000002356 58
0.2999999999996618 0.2000000000004498 59
0.29999999999986 0.3000000000006536 60
0.3000000000000586 0.4000000000008574 61
0.3000000000002568 0.5000000000010494 62
0.3000000000004552 0.6000000000006547 63
0.3000000000006536 0.7000000000002484 64
0.3000000000008519 0.7999999999998417 65
0.3000000000010503 0.8999999999996293 66
0.3999999999992422 0.1000000000001754 67
0.3999999999995115 0.2000000000003223 68
0.3999999999997807 0.3000000000004552 69
0.4000000000000499 0.4000000000005882 70
0.4000000000003192 0.5000000000007125 71
0.4000000000005883 0.6000000000004104 72
0.4000000000008574 0.7000000000000999 73
0.4000000000011266 0.7999999999997891 74
0.4000000000013959 0.8999999999996446 75
0.4999999999990289 0.1000000000001152 76
0.4999999999993656 0.2000000000001947 77
0.4999999999997022 0.3000000000002568 78
0.5000000000000391 0.4000000000003192 79
0.5000000000003757 0.5000000000003757 80
0.5000000000007125 0.6000000000001662 81
0.5000000000010494 0.6999999999999513 82
0.500000000001386 0.7999999999997363 83
0.5000000000017226 0.89999999999966 84
0.5999999999991893 0.100000000000055 85
0.5999999999994334 0.2000000000000672 86
0.5999999999996777 0.3000000000000586 87
0.5999999999999219 0.4000000000000498 88
0.6000000000001662 0.5000000000000391 89
0.6000000000004104 0.5999999999999219 90
0.6000000000006547 0.6999999999998028 91
0.6000000000008989 0.7999999999996834 92
0.6000000000011432 0.8999999999996751 93
0.699999999999357 0.09999999999999476 94
0.6999999999995059 0.1999999999999396 95
0.6999999999996542 0.2999999999998602 96
0.699999999999803 0.3999999999997807 97
0.6999999999999513 0.4999999999997022 98
0.7000000000000999 0.5999999999996777 99
0.7000000000002484 0.6999999999996542 100
0.7000000000003967 0.7999999999996308 101
0.7000000000005455 0.8999999999996904 102
0.7999999999995252 0.09999999999993453 103
0.7999999999995778 0.1999999999998121 104
0.7999999999996306 0.2999999999996618 105
0.7999999999996834 0.3999999999995116 106
0.7999999999997363 0.4999999999993656 107
0.7999999999997891 0.5999999999994334 108
0.7999999999998419 0.6999999999995059 109
0.7999999999998946 0.7999999999995779 110
0.7999999999999472 0.8999999999997057 111
0.8999999999997209 0.09999999999987436 112
0.8999999999997055 0.1999999999996845 113
0.8999999999996904 0.2999999999994635 114
0.8999999999996751 0.3999999999992422 115
0.89999999999966 0.4999999999990288 116
0.8999999999996446 0.5999999999991892 117
0.8999999999996293 0.6999999999993571 118
0.8999999999996142 0.7999999999995253 119
0.8999999999995987 0.899999999999721 120
NMARK= 1
MARKER_TAG= PhysicalLine0
MARKER_ELEMS= 40
3 0 4 
3 4 5 
3 5 6 
3 6 7 
3 7 8 
3 8 9 
3 9 10 
3 10 11 
3 11 12 
3 12 1 
3 1 13 
3 13 14 
3 14 15 
3 15 16 
3 16 17 
3 17 18 
3 18 19 
3 19 20 
3 20 21 
3 21 2 
3 2 22 
3 22 23 
3 23 24 
3 24 25 
3 25 26 
3 26 27 
3 27 28 
3 28 29 
3 29 30 
3 30 3 
3 3 31 
3 31 32 
3 32 33 
3 33 34 
3 34 35 
3 35 36 
3 36 37 
3 37 38 
3 38 39 
3 39 0 
