NDIME= 3
NELEM= 8
12 0 8 20 11 16 21 26 24 0
12 16 21 26 24 4 12 25 15 1
12 11 20 10 3 24 26 23 19 2
12 24 26 23 19 15 25 14 7 3
12 8 1 9 20 21 17 22 26 4
12 21 17 22 26 12 5 13 25 5
12 20 9 2 10 26 22 18 23 6
12 26 22 18 23 25 13 6 14 7
NPOIN= 27
0 0 0 0
1 0 0 1
1 1 0 2
0 1 0 3
0 0 1 4
1 0 1 5
1 1 1 6
0 1 1 7
0.4999999999986921 0 0 8
1 0.4999999999986921 0 9
0.5000000000020595 1 0 10
0 0.5000000000020595 0 11
0.4999999999986921 0 1 12
1 0.4999999999986921 1 13
0.5000000000020595 1 1 14
0 0.5000000000020595 1 15
0 0 0.5 16
1 0 0.5 17
1 1 0.5 18
0 1 0.5 19
0.5000000000003758 0.5000000000003758 0 20
0.4999999999986921 0 0.5 21
1 0.4999999999986921 0.5 22
0.5000000000020595 1 0.5 23
0 0.5000000000020595 0.5 24
0.5000000000003758 0.5000000000003758 1 25
0.5000000000003758 0.5000000000003758 0.5 26
NMARK= 1
MARKER_TAG= sides
MARKER_ELEMS= 24
9 0 8 20 11 
9 11 20 10 3 
9 8 1 9 20 
9 20 9 2 10 
9 0 8 21 16 
9 16 21 12 4 
9 8 1 17 21 
9 21 17 5 12 
9 1 9 22 17 
9 17 22 13 5 
9 9 2 18 22 
9 22 18 6 13 
9 2 10 23 18 
9 18 23 14 6 
9 10 3 19 23 
9 23 19 7 14 
9 3 11 24 19 
9 19 24 15 7 
9 11 0 16 24 
9 24 16 4 15 
9 4 12 25 15 
9 15 25 14 7 
9 12 5 13 25 
9 25 13 6 14 
